<svg width="239" height="80" viewBox="0 0 239 80" xmlns="http://www.w3.org/2000/svg"><title>logo</title><g fill="none" fill-rule="evenodd"><path fill="#ED1869" fill-rule="nonzero" d="M13.023 0h212.093v80H13.023z"/><path d="M32.558 31.628h12.093" stroke="#FFF" stroke-width="1.091" stroke-linecap="round" stroke-dasharray="2.664,2.664"/><g fill-rule="nonzero"><path d="M22.77 44.246c-.114 0-.227 0-.34-.113-.453-.227-.567-.68-.453-1.133l1.811-4.193c.227-.454.68-.567 1.133-.454.453.227.566.68.453 1.134l-1.812 4.306c-.113.227-.453.453-.793.453m3.284-7.253c-.113 0-.226 0-.34-.113-.453-.227-.566-.68-.453-1.133l1.812-4.194c.227-.453.68-.566 1.132-.453.453.227.567.68.453 1.133l-1.811 4.194c-.227.34-.453.566-.793.566m3.17-7.253c-.113 0-.226 0-.34-.113-.452-.227-.565-.68-.452-1.134l1.812-4.193c.226-.453.68-.567 1.132-.453.453.226.566.68.453 1.133l-1.812 4.193a.852.852 0 0 1-.792.567m3.283-7.253c-.113 0-.226 0-.34-.114-.452-.226-.566-.68-.452-1.133l1.811-4.193c.227-.453.68-.567 1.133-.453.453.226.566.68.453 1.133L33.3 21.92c-.227.34-.453.567-.793.567m3.17-7.253c-.112 0-.226 0-.339-.114-.453-.226-.566-.68-.453-1.133l1.812-4.193c.226-.454.68-.567 1.132-.454.453.227.566.68.453 1.134l-1.812 4.193a.852.852 0 0 1-.792.567" fill="#FFF"/><path d="M54.022 44.36c-.34 0-.566-.227-.793-.454l-2.038-4.193c-.227-.453 0-.906.34-1.133.453-.227.905 0 1.132.34l2.038 4.193c.227.453 0 .907-.34 1.133-.113 0-.226.114-.34.114m-3.51-7.253c-.34 0-.566-.227-.792-.454L47.68 32.46c-.227-.453 0-.907.34-1.133.452-.227.905 0 1.132.34l2.038 4.193c.226.453 0 .907-.34 1.133-.113.114-.226.114-.34.114m-3.623-7.254c-.34 0-.566-.226-.793-.453l-2.038-4.193c-.226-.454 0-.907.34-1.134.453-.226.906 0 1.132.34l2.038 4.194c.227.453 0 .906-.34 1.133 0 .113-.113.113-.339.113m-3.51-7.253c-.34 0-.566-.227-.793-.453l-2.038-4.193c-.227-.454 0-.907.34-1.134.34-.226.905 0 1.132.34l2.038 4.193c.227.454 0 .907-.34 1.134-.113.113-.226.113-.34.113m-3.51-7.253c-.34 0-.566-.227-.792-.453L37.037 10.7c-.227-.453 0-.906.34-1.133.452-.227.905 0 1.132.34l2.038 4.193c.226.454 0 .907-.34 1.134-.113.113-.226.113-.34.113m18.684 28.899a.774.774 0 0 1-.793-.793v-4.76c0-.453.34-.793.793-.793s.793.34.793.793v4.76c.113.453-.227.793-.793.793m0-8.273a.774.774 0 0 1-.793-.793v-4.76c0-.453.34-.793.793-.793s.793.34.793.793v4.76c.113.453-.227.793-.793.793m0-8.16a.774.774 0 0 1-.793-.793v-4.76c0-.453.34-.793.793-.793s.793.34.793.793v4.76c.113.34-.227.793-.793.793m3.624 5.44a.865.865 0 0 1-.567-.226.89.89 0 0 1 0-1.247l3.85-3.627a.888.888 0 0 1 1.246 0 .89.89 0 0 1 0 1.247l-3.85 3.627c-.34.113-.566.226-.68.226m6.795-6.46a.865.865 0 0 1-.567-.226.89.89 0 0 1 0-1.247l3.964-3.74a.888.888 0 0 1 1.245 0 .89.89 0 0 1 0 1.247l-3.963 3.74c-.227.113-.453.226-.68.226M74.29 44.36c-.226 0-.34-.114-.566-.227l-3.51-3.06a.872.872 0 0 1-.113-1.133c.34-.34.793-.34 1.245-.113l3.51 3.06c.34.34.34.793.114 1.133-.227.226-.453.34-.68.34m-6.114-5.44c-.227 0-.34-.113-.566-.227l-3.51-3.06c-.34-.34-.34-.793-.114-1.246a.87.87 0 0 1 1.133-.114l3.51 3.06c.34.34.34.794.113 1.247a.623.623 0 0 1-.566.34m35.216 3.173c-.114 0-.227 0-.34-.113-.453-.227-.566-.68-.453-1.133l1.925-4.194c.226-.453.68-.566 1.132-.453.453.227.566.68.453 1.133l-1.925 4.194c-.226.453-.566.566-.792.566m3.397-7.366c-.114 0-.227 0-.34-.114-.453-.226-.566-.68-.453-1.133l1.925-4.193c.226-.454.68-.567 1.132-.454.453.227.566.68.453 1.134l-1.925 4.193c-.113.453-.453.567-.792.567m3.397-7.254c-.114 0-.227 0-.34-.113-.453-.227-.566-.68-.453-1.133l1.925-4.194c.226-.453.68-.566 1.132-.453.453.227.566.68.453 1.133l-1.925 4.194a.852.852 0 0 1-.792.566" fill="#FFF"/><path d="M121.735 42.206c-.34 0-.566-.226-.792-.453l-2.038-4.193c-.227-.453 0-.907.34-1.133.452-.227.905 0 1.132.34l2.038 4.193c.226.453 0 .907-.34 1.133-.113 0-.226.113-.34.113m-3.623-7.366c-.34 0-.566-.227-.793-.453l-2.038-4.194c-.226-.453 0-.906.34-1.133.453-.227.906 0 1.132.34l2.038 4.193c.227.454 0 .907-.34 1.134-.113.113-.226.113-.34.113m-3.623-7.367c-.34 0-.566-.226-.792-.453l-2.038-4.193c-.227-.454 0-.907.34-1.134.452-.226.905 0 1.132.34l2.038 4.194c.226.453 0 .906-.34 1.133-.113.113-.226.113-.34.113M111.77 43.34h-3.396a.774.774 0 0 1-.793-.794c0-.453.34-.793.793-.793h3.397c.453 0 .792.34.792.793 0 .34-.34.794-.792.794m6.454 0h-3.397a.774.774 0 0 1-.792-.794c0-.453.34-.793.792-.793h3.397c.453 0 .793.34.793.793 0 .34-.34.794-.793.794m52.315.906c-.34 0-.794-.226-.794-.68l-1.019-4.646c-.113-.453.227-.907.68-1.02.453-.113.906.227 1.019.68l1.019 4.646c.113.454-.227.907-.68 1.02h-.226m-1.698-8.273c-.34 0-.793-.226-.793-.68l-1.02-4.646c-.112-.454.227-.907.68-1.02.453-.114.906.226 1.02.68l1.018 4.646c.114.454-.226.907-.679 1.02h-.226m-1.699-8.16c-.34 0-.793-.226-.793-.68l-1.019-4.646c-.113-.454.227-.907.68-1.02.453-.114.906.226 1.019.68l.906 4.646c.113.454-.227.907-.68 1.02h-.113m-19.589 16.433h-.227c-.453-.113-.792-.566-.68-1.02l1.02-4.646c.113-.453.566-.793 1.019-.68.453.113.793.567.68 1.02l-1.02 4.646c0 .454-.34.68-.792.68m1.811-8.16h-.226c-.453-.113-.793-.566-.68-1.02l1.02-4.646c.113-.453.566-.793 1.019-.68.453.113.792.567.68 1.02l-1.02 4.647c-.113.453-.453.68-.793.68m1.812-8.16h-.226c-.453-.114-.793-.567-.68-1.02l1.02-4.647c.113-.453.566-.793 1.018-.68.453.113.793.567.68 1.02l-1.02 4.647c-.112.34-.452.68-.792.68" fill="#FFF"/><path d="M159.102 33.14c-.226 0-.566-.113-.679-.34l-2.265-3.287c-.226-.34-.113-.906.227-1.133.34-.227.906-.113 1.132.227l2.265 3.286c.226.34.113.907-.227 1.134-.113.113-.34.113-.453.113m-4.529-6.573c-.226 0-.566-.114-.68-.34l-2.264-3.287c-.226-.34-.113-.907.227-1.133.34-.227.905-.114 1.132.226l2.265 3.287c.226.34.113.907-.227 1.133-.113 0-.226.114-.453.114" fill="#FFF"/><path d="M159.216 33.14c-.114 0-.34 0-.453-.113-.34-.227-.453-.794-.227-1.134l2.491-3.626c.227-.34.793-.454 1.133-.227.34.227.453.793.226 1.133l-2.49 3.627c-.114.227-.454.34-.68.34m4.19-6.347c-.114 0-.34 0-.454-.113-.34-.227-.453-.793-.226-1.133l2.491-3.627c.227-.34.793-.453 1.132-.227.34.227.453.794.227 1.134l-2.491 3.626c-.113.227-.34.34-.68.34m39.066 17.567c-.227 0-.34-.114-.566-.227-.34-.34-.453-.793-.113-1.133l2.151-2.72c.34-.34.793-.453 1.132-.113.34.34.453.793.114 1.133l-2.152 2.72c0 .226-.226.34-.566.34m3.737-4.647c-.227 0-.34-.113-.567-.226-.34-.34-.452-.794-.113-1.134l2.152-2.72c.34-.34.792-.453 1.132-.113.34.34.453.793.113 1.133l-2.151 2.72a.623.623 0 0 1-.566.34m10.757 4.533a.774.774 0 0 1-.793-.793V39.26c0-.453.34-.793.793-.793s.792.34.792.793v4.193c0 .34-.34.793-.792.793m0-7.253a.774.774 0 0 1-.793-.793v-4.193c0-.454.34-.794.793-.794s.792.34.792.794V36.2c0 .453-.34.793-.792.793m0-7.253a.774.774 0 0 1-.793-.793v-4.194c0-.453.34-.793.793-.793s.792.34.792.793v4.194c0 .453-.34.793-.792.793" fill="#FFF"/><path d="M210.51 36.313c-.905 0-1.811 0-2.604-.113-.453 0-.792-.453-.792-.907 0-.453.452-.793.905-.793 1.246.113 2.718.113 4.643 0 .453 0 .906.34.906.793 0 .454-.34.907-.793.907-.792.113-1.585.113-2.264.113m-5.889-.793h-.226c-1.699-.567-2.944-1.587-3.963-3.287-.227-.34-.113-.906.226-1.133.34-.227.906-.113 1.133.227.905 1.36 1.811 2.153 3.057 2.606.453.114.68.68.566 1.02-.113.454-.453.567-.793.567m-4.302-5.667a.774.774 0 0 1-.793-.793v-.567c0-1.473.34-2.833.906-3.853.226-.453.792-.567 1.132-.34.453.227.566.793.34 1.133-.453.794-.68 1.814-.68 3.06v.454c0 .453-.453.906-.905.906m2.83-6.006c-.34 0-.566-.114-.679-.454-.227-.453-.113-.906.34-1.133 1.132-.68 2.49-1.133 4.19-1.36.452 0 .905.227.905.68 0 .453-.226.907-.68.907-1.471.226-2.604.566-3.51 1.133-.226.227-.34.227-.566.227m10.87-.907h-.112c-1.472-.227-2.718-.34-3.964-.34-.453 0-.792-.453-.792-.907 0-.453.34-.793.906-.793 1.245 0 2.717.113 4.19.34.452.113.792.453.679.907-.114.453-.453.793-.906.793m-29.214 20.74c-.453 0-.793-.34-.793-.68-.113-.454.226-.907.68-.907 0 0 .905-.226 2.377-1.586a.888.888 0 0 1 1.246 0 .89.89 0 0 1 0 1.246c-1.812 1.813-3.17 2.04-3.284 2.04l-.226-.113m-89.115.226c-.68 0-1.36-.113-2.265-.226-1.585-.227-3.17-1.474-3.85-2.833-.226-.454 0-.907.34-1.134.453-.226.906 0 1.132.34.453.907 1.699 1.814 2.718 1.927 1.811.34 2.49.34 3.963-.113.453-.114.906.113 1.019.566.113.453-.113.907-.566 1.02-1.02.34-1.699.453-2.491.453m31.365 5.214a.852.852 0 0 1-.792-.567c-.113-.453-.227-.793-.34-1.133-.226-1.134-.453-2.04-1.698-3.174-.793-.68-2.152-1.02-3.171-.906-.453 0-.906-.227-.906-.794 0-.453.227-.906.793-.906 1.359-.113 3.284.227 4.53 1.36 1.584 1.473 1.81 2.72 2.15 3.966.114.34.114.68.227 1.02.113.454-.113.907-.566 1.02-.113.114-.113.114-.227.114m-27.515 0h-.227c-.453-.114-.68-.567-.566-1.02l.34-1.02c.34-1.247.566-2.607 2.264-3.967 1.246-1.133 3.17-1.473 4.643-1.246.453 0 .793.453.793.906s-.453.793-.906.793c-1.02-.113-2.491.114-3.284.907-1.246 1.133-1.472 2.04-1.699 3.173-.113.34-.226.794-.34 1.134-.339.113-.679.34-1.018.34m82.32-5.327c-1.698-.113-3.17-.453-4.302-1.133-.453-.227-.567-.793-.34-1.133.226-.454.792-.567 1.132-.34.906.566 2.038.906 3.51.906.453 0 .793.453.793.907.113.453-.34.793-.793.793m-5.774-3.06c-.34 0-.567-.113-.68-.453-.906-1.473-1.019-3.06-1.019-3.853v-.567c0-.453.453-.793.906-.793s.793.453.793.906v.34c0 .68.113 1.927.792 3.06.227.454.113.907-.34 1.134-.226.226-.34.226-.452.226m13.814 0c-.453 0-.793-.453-1.02-1.02-.565-.906-.565-1.246-.339-3.853 0-.453.453-.793.906-.793s.793.453.793.906c-.227 2.267-.227 2.38.113 2.834.113.226.226.34.226.34.114.113.114.226.227.226.113.454 0 .907-.453 1.02-.227.227-.34.34-.453.34m0-6.8h-.113c-.453-.113-.793-.566-.68-1.02.114-.453.114-.68.114-.906 0-.114 0-.34.113-.68.113-.68.34-2.72.34-2.834.113-.453.452-.793.905-.68.453.114.793.454.68.907 0 .113-.227 2.153-.453 2.833 0 .34-.113.454-.113.567 0 .227-.114.34-.114.907 0 .566-.34.906-.679.906m-14.72 0s-.114 0 0 0c-.567-.113-.906-.453-.793-.906.113-.454.113-.68.113-.907a2 2 0 0 1 .113-.68c0-.34.227-1.927.227-2.833 0-.454.453-.794.906-.794s.792.454.792.907c0 .227-.226 2.493-.226 2.833 0 .34 0 .454-.113.567 0 .227 0 .453-.113.907-.114.566-.453.906-.906.906m15.626-7.026s-.113 0 0 0c-.566 0-.906-.454-.793-.907.113-.907.113-1.247.227-1.7.113-.453.113-1.133.34-2.38 0-.453.452-.793.905-.793s.793.453.793.906c-.113 1.36-.227 1.927-.34 2.38-.113.567-.113.907-.226 1.7-.113.454-.453.794-.906.794m-14.834-.114c-.566 0-.906-.453-.792-.906 0-.794.113-1.134.226-1.587.113-.453.113-1.02.227-2.493 0-.454.453-.794.905-.794.453 0 .793.454.793.907-.113 1.587-.226 2.153-.226 2.607-.114.34-.114.68-.114 1.473-.226.453-.566.793-1.019.793m19.476 17h-.34c-1.585-.113-2.83-.453-3.962-1.587a.89.89 0 0 1 0-1.246.888.888 0 0 1 1.245 0c.793.793 1.585 1.02 2.831 1.02 1.02.113 2.491-.34 3.057-.793.453-.227.906-.114 1.133.34.226.453.113.906-.34 1.133-.68.68-2.378 1.133-3.624 1.133" fill="#FFF"/><path d="M86.18 43.566a.852.852 0 0 1-.793-.566c-.113-.454.114-.907.567-1.02a8.264 8.264 0 0 0 3.397-2.04c.34-.34.905-.227 1.245.113.34.34.227.907-.113 1.247-1.246 1.133-2.604 1.926-3.963 2.38-.113-.114-.227-.114-.34-.114m8.266-11.786c-.453 0-.906-.453-.793-.907v-.68c0-1.246-.226-2.38-.566-3.513-.113-.453.114-.907.566-1.02.453-.113.906.113 1.02.567.453 1.246.679 2.606.679 4.08v.793c-.113.34-.453.68-.906.68m-12.909-6.12a.865.865 0 0 1-.566-.227.89.89 0 0 1 0-1.246c1.246-1.134 2.605-2.04 3.85-2.607.453-.227.906 0 1.133.453.226.454 0 .907-.453 1.134-1.133.453-2.265 1.246-3.397 2.266a.865.865 0 0 1-.567.227m-3.963 13.713a.852.852 0 0 1-.792-.566c-.453-1.134-.68-2.494-.68-3.854v-.793c0-.453.453-.793.906-.793s.793.453.793.906v.68c0 1.134.226 2.267.566 3.174.113.453-.113.906-.453 1.133-.113.113-.226.113-.34.113m5.549 4.533c-.113 0-.113 0 0 0a8.99 8.99 0 0 1-2.491-.68 7.676 7.676 0 0 1-2.039-1.473.89.89 0 0 1 0-1.246.888.888 0 0 1 1.246 0 7.27 7.27 0 0 0 1.472 1.133c.566.227 1.132.453 1.812.566.453 0 .792.454.792.907s-.453.793-.792.793m8.832-4.873c-.113 0-.34 0-.453-.113-.34-.227-.453-.793-.226-1.133.34-.567.679-1.134 1.019-1.814.34-.68.566-1.246.792-1.926.114-.454.566-.68 1.02-.567.452.113.679.567.566 1.02-.227.793-.567 1.473-.906 2.267-.34.68-.68 1.36-1.133 1.926-.113.227-.453.34-.679.34m-14.267-7.026h-.227c-.453-.114-.68-.567-.566-1.02.226-.68.566-1.474.793-2.154.34-.68.679-1.36 1.132-2.04.226-.34.792-.453 1.132-.226.34.226.453.793.227 1.133-.34.567-.68 1.133-1.02 1.813-.34.567-.566 1.247-.792 1.927 0 .34-.34.567-.68.567m14.608-7.48c-.227 0-.453-.114-.68-.227-.453-.453-1.019-.907-1.472-1.133-.453-.227-.906-.227-1.585-.34h-.113c-.453 0-.793-.454-.793-.907s.453-.793.906-.793h.113c.68 0 1.359.113 2.152.453.792.34 1.472.907 2.038 1.587.34.34.34.906-.113 1.246-.114 0-.34.114-.453.114M211.416 62.04c-3.17 0-5.775-2.607-5.775-5.894 0-1.813.567-3.4 1.586-4.533 1.132-1.247 2.717-1.927 4.53-1.927 3.51 0 6 2.72 6 6.574v5.666h-2.604v-.906c-.68.34-1.812 1.02-3.737 1.02m.453-9.86c-2.038 0-3.51 1.586-3.51 3.74 0 2.266 1.359 3.626 3.51 3.626.453 0 1.02-.113 1.586-.34.679-.34 1.811-1.133 1.811-3.4-.113-2.606-1.698-3.626-3.397-3.626m-13.361 9.86c-3.737 0-6.115-2.494-6.115-6.12 0-4.08 2.944-6.234 5.775-6.234 1.925 0 3.17.68 3.85 1.134v-4.194h2.604v8.727c-.113 4.42-2.83 6.687-6.114 6.687m-.113-9.86c-2.152 0-3.51 1.473-3.51 3.74 0 2.153 1.471 3.626 3.51 3.626 1.698 0 3.397-1.133 3.397-3.853 0-2.153-1.36-3.513-3.397-3.513m-9.965 9.633h-2.604V49.8h2.49v1.246c.68-.793 1.586-1.246 2.832-1.246h1.019v2.493h-.793c-2.038 0-2.944 1.36-2.944 4.193v5.327zm-9.625.227c-1.472 0-2.717-.567-3.623-1.474-.906-.906-1.472-2.266-1.472-3.853V49.8h2.604v6.913c0 1.587 1.132 2.72 2.491 2.72 1.359 0 2.491-1.247 2.491-2.72V49.8h2.605v6.913a5.814 5.814 0 0 1-1.472 3.853c-.906.907-2.265 1.474-3.624 1.474m-12.569 0c-3.397 0-6.001-2.267-6.001-6.8v-8.727h2.604v4.193c.68-.453 1.812-1.133 3.737-1.133 2.83 0 5.775 2.153 5.775 6.233 0 3.74-2.491 6.234-6.115 6.234m0-9.86c-2.038 0-3.397 1.473-3.397 3.513 0 2.607 1.699 3.853 3.397 3.853 2.152 0 3.51-1.473 3.51-3.626 0-2.38-1.358-3.74-3.51-3.74" fill="#FFF"/><path d="M215.833 63.173c.792 0 .792.906.792 2.04h-1.585c0-1.02 0-2.04.793-2.04zm.452 4.646c-1.132 0-1.245-1.02-1.245-2.04v-.226h3.17c0-1.587-.566-2.72-2.264-2.72-1.586 0-2.491 1.133-2.491 2.606 0 1.587.905 2.72 2.49 2.72 1.246 0 2.039-.68 2.152-1.926h-.453c0 .793-.566 1.586-1.359 1.586zm-3.85-.793V61.02h-2.15v.34h.339c.34 0 .453.113.453.68v4.986c0 .567-.114.68-.453.68h-.34v.34h2.944v-.34h-.34c-.34 0-.452-.113-.452-.68zm-2.038-4.08h-1.585v.34h.227c.226 0 .34 0 .34.34 0 .113 0 .227-.114.34l-.906 2.38-1.019-2.607c0-.113-.113-.226-.113-.226 0-.227.226-.227.453-.227h.226v-.34h-3.737V61.02h-.34c-.226.906-.792 1.813-1.811 1.926v.34h.68v3.627c0 .68.34 1.36 1.471 1.36.906 0 1.36-.454 1.36-1.474v-.34h-.34v.34c0 .34-.114.68-.453.68-.453 0-.453-.453-.453-1.02v-3.173h1.245c.34 0 .453.453.566.793l1.586 4.194-.227.68c-.226.566-.453 1.133-.792 1.133a.244.244 0 0 1-.227-.227c0-.113.113-.226.113-.453 0-.34-.226-.567-.679-.567-.453 0-.68.227-.68.68 0 .567.453.907 1.02.907.906 0 1.132-.453 1.585-1.36l1.925-4.987c.113-.34.226-.68.68-.68v-.453zm-10.19 1.813c-1.133-.226-1.473-.34-1.473-.793 0-.567.453-.793 1.02-.793.679 0 1.245.566 1.358 1.246h.34v-1.473h-.113c-.114.114-.906 0-1.02-.113-.226 0-.34-.113-.566-.113-1.132 0-1.925.566-1.925 1.7 0 1.02.68 1.246 1.472 1.473.906.226 1.472.34 1.472 1.02 0 .453-.452.793-1.019.793-.906 0-1.358-.567-1.585-1.473h-.34v1.813h.114c.113-.113.34-.113.453-.113.226 0 .452 0 .679.113.226 0 .453.113.68.113 1.018 0 2.038-.453 2.038-1.7 0-1.133-.68-1.473-1.586-1.7zM26.506 5.94c0-.566.68-1.02 1.359-1.02.792 0 1.359.454 1.359 1.02 0 .567-.68 1.02-1.36 1.02-.792 0-1.358-.453-1.358-1.02m3.737 66.64c0-.567.68-1.02 1.358-1.02.793 0 1.36.453 1.36 1.02 0 .566-.68 1.02-1.36 1.02-.679 0-1.358-.454-1.358-1.02m18.683 0c0-.567.68-1.02 1.359-1.02.793 0 1.359.453 1.359 1.02 0 .566-.68 1.02-1.359 1.02-.68 0-1.359-.454-1.359-1.02m21.062 0c0-.567.679-1.02 1.358-1.02.793 0 1.36.453 1.36 1.02 0 .566-.68 1.02-1.36 1.02-.792 0-1.358-.454-1.358-1.02m19.476 0c0-.567.68-1.02 1.359-1.02.792 0 1.358.453 1.358 1.02 0 .566-.679 1.02-1.358 1.02-.793 0-1.36-.454-1.36-1.02m20.157 0c0-.567.679-1.02 1.358-1.02.793 0 1.359.453 1.359 1.02 0 .566-.68 1.02-1.359 1.02-.792 0-1.359-.454-1.359-1.02m19.59 0c0-.567.68-1.02 1.359-1.02.792 0 1.358.453 1.358 1.02 0 .566-.679 1.02-1.358 1.02-.793 0-1.36-.454-1.36-1.02m19.59 0c0-.567.68-1.02 1.359-1.02.793 0 1.359.453 1.359 1.02 0 .566-.68 1.02-1.359 1.02-.793 0-1.359-.454-1.359-1.02m19.59 0c0-.567.679-1.02 1.358-1.02.793 0 1.36.453 1.36 1.02 0 .566-.68 1.02-1.36 1.02-.792 0-1.358-.454-1.358-1.02m19.249 0c0-.567.68-1.02 1.36-1.02.792 0 1.358.453 1.358 1.02 0 .566-.68 1.02-1.359 1.02-.792 0-1.359-.454-1.359-1.02m19.703 0c0-.567.68-1.02 1.359-1.02.792 0 1.359.453 1.359 1.02 0 .566-.68 1.02-1.36 1.02-.792 0-1.358-.454-1.358-1.02m-160-66.186c0-.567.68-1.02 1.36-1.02.792 0 1.359.453 1.359 1.02 0 .566-.68 1.02-1.36 1.02-.679.113-1.358-.454-1.358-1.02m19.363-.114c0-.566.68-1.02 1.359-1.02.792 0 1.358.454 1.358 1.02 0 .567-.679 1.02-1.358 1.02-.68 0-1.36-.453-1.36-1.02m20.27.114c0-.567.68-1.02 1.358-1.02.793 0 1.36.453 1.36 1.02 0 .566-.68 1.02-1.36 1.02-.792.113-1.358-.454-1.358-1.02m19.249 0c0-.567.68-1.02 1.36-1.02.792 0 1.358.453 1.358 1.02 0 .566-.68 1.02-1.359 1.02-.68.113-1.359-.454-1.359-1.02m20.269 0c0-.567.68-1.02 1.359-1.02.793 0 1.359.453 1.359 1.02 0 .566-.68 1.02-1.359 1.02-.68.113-1.359-.454-1.359-1.02m20.609 0c0-.567.68-1.02 1.359-1.02.792 0 1.358.453 1.358 1.02 0 .566-.68 1.02-1.358 1.02-.793.113-1.36-.454-1.36-1.02m18.798 0c0-.567.679-1.02 1.358-1.02.793 0 1.36.453 1.36 1.02 0 .566-.68 1.02-1.36 1.02-.792.113-1.358-.454-1.358-1.02m19.815 0c0-.567.68-1.02 1.36-1.02.792 0 1.358.453 1.358 1.02 0 .566-.68 1.02-1.359 1.02-.68.113-1.359-.454-1.359-1.02m19.59 0c0-.567.68-1.02 1.359-1.02.792 0 1.358.453 1.358 1.02 0 .566-.679 1.02-1.358 1.02-.793.113-1.36-.454-1.36-1.02" fill="#231F20"/><path d="M135.323 36.087h-.34c-.452 0-.792-.454-.792-.907s.34-.793.906-.793c1.359 0 2.604-.227 3.623-.68.453-.227.906 0 1.133.34.226.453 0 .906-.34 1.133-1.359.68-2.718.907-4.19.907m7.134-8.954c-.34 0-.68-.226-.792-.453-.453-1.02-1.246-1.927-2.265-2.607-.34-.226-.453-.793-.227-1.133.227-.34.793-.453 1.133-.227 1.245.907 2.264 2.04 2.83 3.287.227.453 0 .907-.452 1.133h-.227m-15.966 7.82a.774.774 0 0 1-.792-.793c0-.453-.114-.907-.114-1.36 0-.907.114-1.813.227-2.72.113-.453.566-.793 1.019-.68.453.113.793.567.68 1.02-.114.793-.227 1.587-.227 2.38 0 .453 0 .793.113 1.247 0 .34-.34.793-.906.906 0-.113 0 0 0 0m10.644 8.953a.774.774 0 0 1-.792-.793c0-.453.34-.907.792-.907a4.69 4.69 0 0 0 1.812-.34c.68-.226 1.698-.566 2.151-.906.34-.227.906-.227 1.133.227.226.34.226.906-.227 1.133-.792.566-2.264 1.02-2.717 1.133-.68.34-1.36.453-2.152.453.113 0 0 0 0 0m-2.717 0a15.597 15.597 0 0 1-2.152-.34c-.68-.226-1.359-.566-1.925-1.02-.34-.226-.453-.793-.226-1.133.226-.34.792-.453 1.132-.226.453.34 1.02.566 1.472.793 0 0 .68.226 1.812.34.453 0 .792.453.792.906-.113.34-.453.68-.905.68m-5.549-3.06c-.226 0-.453-.113-.68-.34-.679-.793-1.132-1.586-1.245-1.7-.226-.453-.453-1.02-.792-1.926-.114-.453.113-.907.566-1.02.453-.113.906.113 1.019.567.226.793.453 1.36.68 1.7 0 .113.452.68 1.018 1.36.34.34.227.906-.113 1.133-.113.227-.226.227-.453.227m3.17-5.214h-.226a7.193 7.193 0 0 1-2.038-.68c-.453-.113-.68-.68-.453-1.133.113-.453.68-.68 1.132-.453.68.226 1.246.453 1.925.566.453.114.68.567.567 1.02-.114.454-.453.68-.906.68m9.285-2.153c-.227 0-.34-.113-.566-.227-.34-.34-.453-.793-.114-1.133.34-.453.68-1.02 1.02-1.587.226-.566.452-1.133.452-1.586 0-.454.453-.794.906-.794s.793.454.793.907c-.113.68-.227 1.473-.566 2.153-.34.68-.793 1.36-1.246 1.927-.226.34-.453.34-.68.34m-13.814-4.987c-.113 0-.226 0-.34-.113-.452-.227-.566-.68-.452-1.133.226-.567.566-1.247 1.019-1.814l.113-.113a13.701 13.701 0 0 1 1.812-1.813c.34-.34.906-.227 1.132.113.34.34.227.907-.113 1.133-.566.454-1.02 1.02-1.585 1.587-.34.453-.567 1.02-.793 1.587-.227.453-.453.566-.793.566m5.662-5.213a.852.852 0 0 1-.793-.567c-.113-.453.114-.906.453-1.133.906-.34 1.699-.453 2.605-.567.68 0 1.472.114 2.264.34.453.114.68.567.567 1.02-.114.454-.567.68-1.02.567-.566-.113-1.132-.227-1.698-.227-.68 0-1.359.114-2.038.454-.114.113-.227.113-.34.113" fill="#FFF"/><path d="M.575 78.02c-.226 0-.34-.114-.34-.34.227-2.72 1.473-4.874 3.624-6.234 6.002-3.967 18.684-2.04 27.742 1.02 1.133-.793 4.643-.567 10.078 0 3.963.34 8.38.793 9.512.113 1.245-.793 5.435-.453 9.738-.113 4.076.34 8.719.68 9.851 0 1.246-.793 5.435-.453 9.738 0 4.19.453 8.946.907 9.965 0 1.245-1.133 5.775-.567 10.644-.113 3.963.453 8.04.793 9.059.226 1.245-.793 4.982-.453 9.285 0 4.19.34 8.945.794 10.417 0 1.585-.906 6.002-.566 10.644-.113 3.963.34 8.04.68 9.059 0 1.132-.907 5.209-.453 9.738 0 4.19.453 8.945.907 10.078 0 1.359-.907 5.548-.453 9.964 0 3.963.453 8.153.907 9.285.113 1.472-.906 6.115-.566 10.984-.113 3.85.34 7.926.68 8.946.113 4.982-2.606 10.304-1.473 14.946-.566 5.322 1.133 9.625 2.04 11.324-3.06.113-.114.226-.227.453-.227.113 0 .226.227.226.453-1.925 5.667-6.567 4.647-12.116 3.514-4.642-.907-9.738-2.04-14.607.453-1.246.68-4.982.34-9.285 0s-9.285-.793-10.53 0c-1.36.793-5.436.453-9.739-.113-3.963-.454-8.492-.907-9.625-.114-1.359.907-5.775.567-10.53.114-3.964-.34-8.38-.794-9.399-.114-1.132.794-4.982.454-9.512.114-4.19-.34-8.832-.794-10.19 0-1.586 1.02-6.228.566-10.758.113-3.85-.34-7.813-.793-8.945-.113-1.246.793-5.096.34-9.512-.114-4.303-.453-9.172-.906-10.19-.113-1.133 1.02-5.663.68-10.418.113-3.85-.34-8.266-.793-9.399-.113-1.359.907-5.661.567-10.304.113-4.076-.34-8.266-.68-9.398 0-1.246.794-5.436.34-9.965 0-3.963-.34-8.945-.793-9.738 0-.113.114-.226.114-.34.114-8.945-2.947-21.514-4.987-27.402-1.134C1.595 73.26.575 75.186.349 77.68c.453.227.34.34.226.34M237.8 11.834c-.113 0-.34-.114-.34-.34-.226-2.494-1.359-4.42-3.284-5.78-5.888-3.854-18.457-1.814-27.402 1.133-.113 0-.227 0-.34-.113-.793-.794-5.775-.34-9.738 0-4.416.453-8.606.793-9.965 0-1.132-.68-5.321-.34-9.398 0-4.642.34-8.945.68-10.304-.114-1.02-.68-5.435-.226-9.399.114-4.755.453-9.285.906-10.417-.114-1.02-.906-5.888-.34-10.191.114-4.416.453-8.266.906-9.512.113-1.019-.68-5.095-.227-8.945.113-4.53.454-9.172.907-10.757-.113-1.36-.793-6.115-.453-10.191 0-4.416.453-8.38.793-9.512-.113-1.02-.68-5.435-.34-9.398.113-4.756.453-9.172.907-10.531-.113-1.132-.794-5.662-.34-9.625.113-4.303.453-8.38.907-9.738.113-1.246-.793-6.228-.34-10.53 0-4.304.34-8.04.68-9.286 0-4.756-2.493-9.964-1.473-14.607-.453C8.955 7.64 4.199 8.66 2.274 2.994c-.113-.114 0-.34.226-.454.114 0 .34 0 .453.227 1.699 5.1 6.002 4.193 11.324 3.06 4.642-1.02 9.964-2.04 14.947.567 1.019.566 5.095.226 8.945-.114 4.869-.453 9.512-.793 10.984.114 1.245.68 5.322.226 9.285-.114 4.416-.453 8.719-.906 9.964 0 1.133.794 5.889.34 10.078 0 4.643-.453 8.606-.793 9.738 0 1.02.68 5.096.34 9.059 0 4.643-.453 9.059-.793 10.644.114 1.359.906 6.115.453 10.417 0 4.303-.454 8.04-.794 9.286 0 1.019.68 5.095.226 9.058-.227 4.87-.453 9.512-1.02 10.644.113.906.907 5.662.454 9.965 0 4.416-.453 8.492-.906 9.738 0 1.132.794 5.775.34 9.851 0 4.416-.34 8.493-.68 9.738.114 1.133.68 5.549.226 9.512-.114 5.435-.453 8.945-.793 10.078 0 9.058-2.946 21.74-4.986 27.742-1.02 2.151 1.474 3.397 3.514 3.623 6.234.567.113.453.226.227.34" fill="#231F20"/></g></g></svg>